<svg xmlns="http://www.w3.org/2000/svg" viewBox="0 0 64 64" role="img" aria-label="MusePrompt swoosh M with outline AI star logo">
  <rect width="64" height="64" rx="15" fill="#FFF7DF"/>
  <path d="M17 9l2.1 6.1 6.1 2.1-6.1 2.1-2.1 6.1-2.1-6.1-6.1-2.1 6.1-2.1L17 9z" fill="#FFF7DF" stroke="#2C251D" stroke-width="3" stroke-linejoin="round"/>
  <path d="M17 13.5l1.2 3.7 3.7 1.2-3.7 1.2-1.2 3.7-1.2-3.7-3.7-1.2 3.7-1.2L17 13.5z" fill="#F0B861"/>
  <path d="M11 42c7.5 1 17.5-15 26-24 2.8-3 8.4-1.1 7.1 3.8L38.5 43c-.5 2 2 3.1 3.4 1.5l7.8-9.4c2.5-3 7.7-.7 6.8 3.1l-2 8.8" fill="none" stroke="#2C251D" stroke-width="8.5" stroke-linecap="round" stroke-linejoin="round"/>
</svg>
